<?xml version="1.0" encoding="UTF-8" standalone="no"?>
<svg
   version="1.0"
   width="1080.000000pt"
   height="1080.000000pt"
   viewBox="0 0 1080.000000 1080.000000"
   preserveAspectRatio="xMidYMid meet"
   id="svg531"
   sodipodi:docname="resoftt.svg"
   inkscape:version="1.2.1 (9c6d41e410, 2022-07-14)"
   xmlns:inkscape="http://www.inkscape.org/namespaces/inkscape"
   xmlns:sodipodi="http://sodipodi.sourceforge.net/DTD/sodipodi-0.dtd"
   xmlns="http://www.w3.org/2000/svg"
   xmlns:svg="http://www.w3.org/2000/svg">
  <defs
     id="defs535" />
  <sodipodi:namedview
     id="namedview533"
     pagecolor="#ffffff"
     bordercolor="#000000"
     borderopacity="0.25"
     inkscape:showpageshadow="2"
     inkscape:pageopacity="0.0"
     inkscape:pagecheckerboard="0"
     inkscape:deskcolor="#d1d1d1"
     inkscape:document-units="pt"
     showgrid="false"
     inkscape:zoom="0.56527778"
     inkscape:cx="720"
     inkscape:cy="720"
     inkscape:window-width="1920"
     inkscape:window-height="1017"
     inkscape:window-x="-8"
     inkscape:window-y="-8"
     inkscape:window-maximized="1"
     inkscape:current-layer="svg531" />
  <path
     id="path655"
     style="fill:#000000;stroke:none;stroke-width:0.1"
     d="M 890.12842 16.22168 C 886.12874 16.217651 882.21298 16.662599 878.50049 17.600098 C 864.5005 21.100094 850.20009 31.000304 842.6001 42.300293 C 839.3001 47.400288 834.5 58.000488 835.5 58.000488 C 835.8 58.000488 838.79981 56.099705 842.2998 53.699707 C 856.69979 43.799717 874.99953 41.700397 892.99951 47.900391 C 898.19951 49.700389 903.89971 52.000587 905.69971 53.100586 C 909.3997 55.400584 918.90039 67.699714 922.40039 74.699707 C 930.00038 89.899692 930.40048 106.8007 923.50049 123.20068 C 922.20049 126.30068 924.5002 125.10048 930.7002 119.50049 C 938.60019 112.4005 943.69981 104.60009 947.2998 94.100098 C 953.6998 75.400116 949.90048 54.40057 937.00049 38.100586 C 926.35675 24.694349 907.46036 16.239136 890.12842 16.22168 z M 679.59961 49.000488 C 676.79961 49.100488 673.4 49.700489 672 50.500488 C 670.6 51.200488 632.90064 89.400339 588.20068 135.30029 L 507 218.79932 L 501.20068 219.3999 C 397.10079 231.49989 302.60054 297.80049 254.10059 392.90039 C 237.7006 425.00036 226.7999 458.79954 222.3999 490.99951 C 221.5999 497.29951 220.7 503.50059 220.5 504.60059 C 220.2 505.80058 201.80008 525.20071 179.6001 547.70068 L 139.1001 588.7002 L 145.80029 591.3999 L 152.50049 594 L 195.09961 551.10059 L 237.7002 508.19971 L 238.40039 500.79932 C 238.80039 496.79932 240.39951 486.9995 241.99951 478.99951 C 256.1995 407.89958 297.10025 342.10015 354.7002 297.7002 C 398.20015 264.30023 447.60074 244.10048 504.20068 236.50049 C 508.80068 235.90049 509.00075 235.70061 577.70068 165.20068 C 615.50065 126.30072 650.50001 90.399311 655.5 85.299316 C 662.69999 77.999324 665.29981 75.999511 668.2998 75.499512 C 673.7998 74.499513 678.4001 75.700101 682.1001 79.100098 L 685.29932 82.100098 L 688.80029 78.799805 C 692.50029 75.199808 695.9 68.799801 696 65.299805 C 696 60.899809 692.70068 54.799411 688.70068 51.899414 C 685.50069 49.599416 683.69961 49.000488 679.59961 49.000488 z M 864.20068 76.149902 C 863.55068 76.099902 862.39941 76.700392 860.39941 77.900391 C 855.69942 80.800388 850.4 87.600103 849 92.600098 C 846.4 101.70009 849.3003 114.50001 855.30029 120 C 864.50028 128.79999 881.29942 128.4994 890.39941 119.39941 C 893.59941 116.19942 898.00049 107.60049 898.00049 104.50049 C 898.00049 102.70049 897.30019 102.49951 890.2002 102.49951 C 881.3002 102.39951 876.2997 100.3996 871.19971 94.599609 C 868.09971 91.099613 865.00049 82.900288 865.00049 78.300293 C 865.00049 76.900294 864.85068 76.199902 864.20068 76.149902 z M 55.999512 114.89941 L 55.999512 181.5 L 55.999512 247.99951 L 61.000488 247.99951 L 66 247.99951 L 66 253.00049 L 66 258.09961 L 78.799805 257.79932 L 91.5 257.50049 L 91.800293 230.2002 L 91.999512 202.99951 L 109.8999 202.99951 C 122.99989 202.99951 127.99971 203.30068 128.69971 204.20068 C 129.19971 204.90068 133.59952 215.1007 138.49951 226.70068 C 146.9995 247.40066 147.29961 247.99951 150.09961 247.99951 C 152.59961 247.99951 153.20059 248.70049 155.10059 253.00049 L 157.19971 258 L 170.69971 258 C 181.0997 258 184.10019 257.70068 183.7002 256.70068 C 183.5002 256.10068 178.20009 243.50018 172.1001 228.7002 C 166.0001 214.00021 160.99951 201.49961 160.99951 201.09961 C 160.99951 200.59961 162.49942 199.2 164.39941 198 C 170.09941 194.6 177.69961 185.50019 180.09961 179.2002 C 181.99961 174.7002 182.39941 171.4995 182.39941 163.99951 C 182.39941 149.29953 180.3996 145.1994 166.59961 131.39941 C 149.79963 114.59943 153.59975 115.59971 99.799805 115.19971 L 55.999512 114.89941 z M 187.00049 115.00049 L 187.19971 181.19971 L 187.5 247.5 L 192.30029 247.80029 L 196.99951 248.10059 L 196.99951 253.1001 L 196.99951 258 L 256.00049 258 L 315 258 L 315 246.49951 L 315 235.00049 L 310.00049 235.00049 L 304.99951 235.00049 L 304.99951 229.99951 L 304.99951 225 L 264.30029 224.79932 L 223.5 224.50049 L 223.5 214.00049 L 223.5 203.50049 L 268.80029 203.2002 L 313.99951 202.99951 L 313.99951 191.50049 L 313.99951 180.09961 L 308.79932 179.79932 L 303.49951 179.50049 L 303.20068 174.7998 L 302.90039 169.99951 L 263.2002 169.80029 L 223.5 169.5 L 223.19971 159.20068 L 222.89941 148.99951 L 268.99951 148.99951 L 315 148.99951 L 315 136.99951 L 315 124.99951 L 310.00049 124.99951 L 304.99951 124.99951 L 304.99951 120 L 304.99951 115.00049 L 246 115.00049 L 187.00049 115.00049 z M 58.000488 117.89941 L 101.2998 118.19971 L 144.49951 118.5 L 150.20068 121.29932 C 158.60068 125.39931 165.39961 133.39972 168.09961 142.19971 C 173.5996 160.09969 166.30047 179.2005 151.00049 187.00049 C 148.70049 188.20049 147.10029 189.59932 147.30029 190.29932 C 148.10029 192.09931 168.00049 240.09971 169.00049 242.69971 C 170.00049 244.9997 169.90067 244.99951 159.20068 244.99951 L 148.5 244.99951 L 145.59961 237.7002 C 143.89961 233.8002 138.89941 221.70048 134.39941 211.00049 L 126.09961 191.50049 L 102.60059 191.2002 L 79.000488 190.99951 L 79.000488 217.99951 L 79.000488 244.99951 L 68.500488 244.99951 L 58.000488 244.99951 L 58.000488 181.5 L 58.000488 117.89941 z M 190.00049 118.00049 L 246 118.00049 L 302.10059 118.00049 L 301.80029 126.7002 L 301.5 135.49951 L 255.7002 135.7998 L 210 136.00049 L 210.20068 154.29932 L 210.49951 172.5 L 255.7998 172.80029 L 301.1001 172.99951 L 300.7998 181.80029 L 300.49951 190.5 L 255.30029 190.80029 L 210 190.99951 L 210 208.99951 L 210 226.99951 L 255.7998 227.2002 L 301.5 227.50049 L 301.80029 236.2002 L 302.10059 244.99951 L 246 244.99951 L 190.00049 244.99951 L 190.00049 181.5 L 190.00049 118.00049 z M 821.69971 123 C 820.99971 123 791.10055 152.39945 755.10059 188.39941 L 689.79932 253.70068 L 676.59961 247.5 C 648.09964 233.80001 619.40036 225.10048 586.40039 220.00049 C 566.80041 217.00049 567.79931 216.80069 559.29932 225.20068 C 555.29932 229.20068 552 232.70059 552 233.10059 C 552 233.50059 555.5003 234.0999 559.80029 234.3999 C 599.90025 237.8999 635.40033 247.19982 669.30029 263.2998 L 682.1001 269.39941 L 753.20068 198.30029 C 813.90062 137.60035 824.1 127.00058 823.5 125.10059 C 823.2 124.00059 822.29971 123 821.69971 123 z M 79.000488 136.00049 L 79.000488 154.59961 L 79.000488 173.10059 L 108.30029 172.80029 L 137.69971 172.5 L 141.7002 169.80029 C 151.10019 163.6003 152.19931 148.0998 143.79932 140.2998 C 139.49932 136.29981 136.89938 136.00049 107.39941 136.00049 L 79.000488 136.00049 z M 91.999512 148.99951 L 119.2998 149.2002 L 146.50049 149.50049 L 146.79932 153.7002 C 147.19932 159.20019 144.8998 163.89951 140.2998 166.99951 C 136.69981 169.49951 136.20027 169.50029 114.30029 169.80029 L 91.999512 170.10059 L 91.999512 159.60059 L 91.999512 148.99951 z M 933.49951 237 C 931.89951 237 929.19951 237.69961 927.49951 238.59961 C 925.89951 239.39961 921.70029 242.9003 918.30029 246.30029 L 912 252.3999 L 916.29932 253.70068 C 922.39931 255.50068 927.1002 260.69942 927.7002 266.39941 C 928.0002 268.79941 927.90059 272.1002 927.60059 273.7002 C 927.10059 275.60019 913.20066 290.29954 885.20068 318.49951 C 862.30071 341.59949 835.50019 368.6006 825.7002 378.60059 L 807.89941 396.60059 L 813.30029 407.6001 C 828.40028 437.80007 839.00059 476.80013 842.10059 512.6001 C 842.80059 520.30009 843.5002 526.6999 843.7002 526.8999 C 843.9002 527.1999 847.40049 524.10048 851.50049 520.00049 C 860.10048 511.5005 859.89941 512.3993 857.39941 494.79932 C 852.89942 461.69935 840.59979 422.29948 825.7998 393.49951 L 823.19971 388.59961 L 885.3999 325.70068 C 921.09987 289.60072 948.09941 261.50068 948.89941 259.70068 C 950.59941 255.50069 949.7998 247.5997 947.2998 244.19971 C 944.89981 240.79971 937.49951 237 933.49951 237 z M 554.50049 265.5 L 554.50049 328.5 L 554.50049 391.5 L 564 391.19971 C 586.19998 390.49971 612.89934 387.49941 634.29932 383.39941 C 646.7993 380.89942 648 380.49951 648 378.49951 C 648 377.29951 647.40029 375.59971 646.80029 374.69971 C 645.60029 373.19971 644.60048 373.1999 632.50049 375.3999 C 614.50051 378.6999 571.90028 382.99951 556.80029 382.99951 C 555.10029 382.99951 554.99971 379.50063 554.69971 324.20068 L 554.50049 265.5 z M 525.09961 267.49951 C 524.89961 267.99951 524.6001 293.99974 524.6001 325.19971 C 524.5001 356.29968 524.1999 382.1 523.8999 382.5 C 522.1999 384.2 474.50027 379.5999 450.30029 375.3999 C 442.5003 374.0999 435.4001 373.00049 434.6001 373.00049 C 433.5001 373.00049 430.99951 377.59961 430.99951 379.59961 C 430.99951 382.79961 522.40069 393.9997 525.20068 391.19971 C 525.70068 390.69971 525.9002 362.50036 525.7002 328.40039 C 525.6002 294.40042 525.29961 266.89951 525.09961 267.49951 z M 721.29932 274.00049 C 720.79932 274.00049 717.79951 276.7001 714.49951 280.1001 C 709.69952 284.90009 708.79951 286.29951 709.99951 286.99951 C 713.89951 289.19951 731.2002 302.70001 740.2002 310.5 C 752.20018 321.09999 769.2005 339.49982 779.50049 353.2998 C 783.70048 358.8998 788.19951 364.79951 789.49951 366.49951 L 791.79932 369.49951 L 797.39941 364.00049 C 800.49941 361.00049 802.99951 357.9999 802.99951 357.3999 C 802.99951 355.9999 794.0996 343.3995 786.09961 333.49951 C 778.69962 324.19952 761.69989 306.70009 750.3999 296.6001 C 740.89991 288.10011 722.79931 274.00049 721.29932 274.00049 z M 449.96777 279.20508 C 448.6686 279.09792 445.31874 280.39356 439.5 282.7998 C 431.30001 286.2998 430.10019 287.10049 426.7002 292.00049 C 418.0002 304.50048 403.9995 331.70002 396.49951 351 C 394.49951 356.19999 392.50059 360.79971 392.10059 361.19971 C 391.50059 361.89971 363.90067 352.89941 349.70068 347.39941 C 344.70069 345.49942 341.50049 346.1001 341.50049 349.1001 C 341.50049 351.6001 398.4001 373.00019 400.1001 371.2002 C 400.5001 370.8002 402.69961 365.50048 405.09961 359.50049 C 415.0996 334.10051 430.5007 306.70018 445.70068 287.2002 C 449.91943 281.8002 451.63813 279.34285 449.96777 279.20508 z M 626.50049 279.7002 L 629.2998 283.1001 C 647.39979 305.40008 660.5005 328.10071 673.00049 358.70068 C 677.20048 369.00067 678.79981 372 680.2998 372 C 684.7998 372 734.70049 353.60039 737.50049 350.90039 C 738.10049 350.30039 737.80068 349.40029 736.70068 348.30029 C 735.40068 346.90029 734.49931 346.79932 731.79932 347.79932 C 729.99932 348.39932 720.1995 351.79932 709.99951 355.29932 C 683.69954 364.39931 686.89951 364.50067 682.99951 354.20068 C 675.29952 333.9007 664.10057 311.40067 653.10059 294.20068 C 648.60059 287.20069 648.30068 286.89951 640.70068 283.99951 C 636.40069 282.29951 631.39971 280.59932 629.69971 280.29932 L 626.50049 279.7002 z M 976.90283 372.37793 C 974.83096 372.33105 972.97549 372.40059 971.50049 372.60059 C 965.40049 373.50059 956.39951 376.29942 951.49951 378.89941 L 946.5 381.49951 L 957.49951 382.1001 C 969.6995 382.8001 975.60001 384.4001 984 389.6001 C 990.59999 393.70009 993.30059 396.10001 998.10059 402 C 1008.4006 414.69999 1012.2995 432.49992 1008.4995 448.8999 C 1004.8995 463.99989 992.40018 479.99942 978.7002 486.89941 C 975.0002 488.79941 972 490.50029 972 490.80029 C 972 491.90029 988.29932 489.79951 994.29932 487.99951 C 1002.7993 485.29951 1014.2998 477.69941 1020.7998 470.39941 C 1031.0998 458.69943 1036.1001 445.40008 1036.1001 430.1001 C 1036.0001 404.40012 1020.6994 383.0995 996.89941 375.49951 C 991.27442 373.69951 983.11845 372.51855 976.90283 372.37793 z M 382.29932 399 C 381.69932 399 380.4 402.29971 379.5 406.19971 C 371.90001 439.29967 364.00049 496.29973 364.00049 518.69971 L 364.00049 523.99951 L 313.80029 524.2998 L 263.50049 524.50049 L 318.09961 524.79932 C 379.99955 524.99932 373.99951 525.9996 373.99951 516.09961 C 373.99951 495.99963 380.9005 446.29977 388.00049 414.7998 C 389.70049 407.59981 391.00049 401.59941 391.00049 401.39941 C 391.00049 400.99941 383.89931 399 382.29932 399 z M 695.69678 399.16406 C 694.66028 399.08887 693.2622 399.50635 691.19971 400.1001 C 688.09971 401.0001 687.9 401.4003 688.5 403.80029 C 697.79999 440.00026 703.19932 475.19955 704.79932 508.99951 L 705.49951 524.50049 L 759.49951 524.50049 L 813.49951 524.50049 L 764.39941 524.2998 L 715.29932 523.99951 L 714.60059 510.7002 C 712.60059 473.90023 708.49999 444.20016 700.5 410.2002 C 698.50625 401.88145 697.97707 399.32949 695.69678 399.16406 z M 954.20068 412.00049 C 950.80069 412.00049 947.4997 412.9001 943.19971 415.1001 C 939.79971 416.8001 935.7001 419.80069 934.1001 421.70068 C 928.4001 428.60068 927.6002 440.89981 932.2002 449.2998 C 938.50019 460.59979 954.29952 465.40058 966.49951 459.60059 L 971.50049 457.19971 L 967.5 455.50049 C 957.50001 451.20049 952.10029 443.8996 951.30029 433.59961 C 950.70029 426.09962 952.1002 421.00068 956.2002 415.70068 L 959.10059 412.00049 L 954.20068 412.00049 z M 554.50049 421.5 L 554.2002 473.2002 L 553.99951 525 L 614.79932 524.79932 L 675.49951 524.50049 L 615.30029 524.2998 L 555 523.99951 L 554.69971 472.70068 L 554.50049 421.5 z M 525.09961 421.99951 C 524.59961 421.99951 524.29941 443.29974 524.39941 472.19971 L 524.50049 522.49951 L 463.99951 523.00049 L 403.5 523.5 L 464.50049 523.5 L 525.49951 523.5 L 525.7998 472.70068 C 525.8998 443.50071 525.59961 421.99951 525.09961 421.99951 z M 926.2002 486.30029 L 883.70068 528.89941 L 841.19971 571.5 L 840.49951 577.99951 C 839.39951 588.3995 835.09951 609.50001 831.49951 622.5 C 809.69953 700.39992 757.80061 766.49945 687.20068 806.39941 C 655.50072 824.2994 620.80035 836.19952 583.40039 841.99951 L 570.49951 844.00049 L 491.79932 922.70068 C 431.29938 983.30062 412.3 1001.7998 409.5 1002.7998 C 404.9 1004.2998 399.39951 1003.0999 394.99951 999.3999 C 391.99951 996.7999 391.89931 996.8001 389.79932 998.6001 C 385.69932 1002.2001 382.00049 1009.2002 382.00049 1013.2002 C 382.00049 1024.7002 393.19933 1032.8997 403.29932 1028.6997 C 405.79931 1027.5997 432.49957 1001.4005 489.49951 944.10059 C 571.69943 861.50067 572.19981 861.10049 576.7998 860.50049 C 618.19976 855.00049 656.40052 842.89979 691.00049 824.2998 C 702.90048 817.89981 725.89962 802.5994 738.09961 792.89941 C 751.2996 782.49942 779.19942 754.60067 789.89941 741.20068 C 824.99938 696.80073 849.29962 640.49926 856.59961 586.29932 L 858.30029 573.49951 L 898.80029 532.80029 C 921.20027 510.40032 939.2 491.89971 939 491.69971 C 938.7 491.39971 935.6998 490.09932 932.2998 488.79932 L 926.2002 486.30029 z M 236.74219 553.80029 C 235.8166 554.14209 232.6997 556.79981 229.19971 560.2998 C 220.89972 568.6998 220.9 568.80002 223.5 586.5 C 228.5 619.99997 238.79953 653.59964 252.49951 681.09961 L 257.79932 691.70068 L 195.3999 754.1001 C 160.99994 788.40006 132.19941 817.70069 131.39941 819.20068 C 130.59941 820.70068 130.00049 824.10069 130.00049 826.70068 C 130.00049 835.70067 136.29933 841.99951 145.29932 841.99951 C 151.49931 841.99951 154.09932 840.50068 161.79932 832.70068 L 168.20068 826.29932 L 163.80029 825.7002 C 160.5003 825.3002 158.69931 824.20058 155.79932 821.10059 C 152.39932 817.50059 151.99951 816.50029 151.99951 811.80029 C 151.99951 808.5003 152.60059 805.5 153.60059 804 C 154.50059 802.6 181.79974 774.89997 214.19971 742.5 L 273.09961 683.39941 L 270.60059 678.89941 C 255.4006 651.69944 242.00029 605.20006 238.80029 568.1001 C 238.20029 560.60011 237.4 554.20029 237 553.80029 C 236.9625 553.75029 236.87441 553.75146 236.74219 553.80029 z M 525 555 L 464.2998 555.20068 L 403.5 555.49951 L 463.29932 555.7002 L 523.00049 556.00049 L 523.00049 606.49951 C 523.00049 639.49948 523.29951 657 523.99951 657 C 524.69951 657 525 639.29997 525 606 L 525 555 z M 553.99951 555 L 554.2002 606.7002 L 554.50049 658.5 L 554.69971 607.29932 L 555 556.00049 L 615.7998 555.7002 L 676.5 555.49951 L 615.30029 555.20068 L 553.99951 555 z M 706.99951 555 L 706.59961 557.2002 C 706.39961 558.50019 705.69961 566.9004 705.09961 575.90039 C 703.19961 603.70036 698.19951 637.10042 691.99951 664.40039 C 690.29951 671.60038 688.99951 677.69961 688.99951 678.09961 C 688.99951 678.79961 697.89941 681.50039 698.39941 680.90039 C 698.59941 680.70039 700.20039 674.1995 701.90039 666.49951 C 708.10038 637.79954 712.8001 604.70026 715.1001 573.30029 L 716.2998 556.00049 L 765.89941 555.7002 L 815.50049 555.49951 L 761.2998 555.20068 L 706.99951 555 z M 266.50049 555.49951 L 316.1001 555.7002 L 365.69971 556.00049 L 366.3999 569.79932 C 367.1999 585.9993 368.49961 601.19953 370.59961 616.99951 C 374.19961 643.89948 382.1999 681 384.3999 681 C 385.5999 681 392.09932 678.99951 392.79932 678.49951 C 392.99932 678.29951 391.79961 672.8999 390.09961 666.3999 C 382.29962 635.19993 376.80019 595.49997 375.7002 562.5 L 375.49951 555.49951 L 321 555.49951 L 266.50049 555.49951 z M 104.12549 589.12061 C 101.23389 589.17041 96.687496 589.53809 93 590.10059 C 70.400023 593.40058 50.999603 611.50071 45.099609 634.70068 C 42.499612 644.80067 42.500003 652.29991 45 661.8999 C 48.099997 673.89989 52.399423 681.50001 60.899414 690 C 79.299396 708.29998 104.60071 712.7996 127.70068 702.09961 C 131.10068 700.39961 133.99951 698.99932 133.99951 698.79932 C 133.99951 698.59932 130.10019 698.50049 125.2002 698.50049 C 104.40022 698.40049 85.500479 686.69988 76.000488 667.8999 C 72.800491 661.69991 69 647.60029 69 642.30029 C 69 637.2003 72.699711 624.2995 76.199707 616.99951 C 80.399703 608.39952 91.199326 597.70058 100.29932 593.10059 C 103.99931 591.20059 106.99951 589.50039 106.99951 589.40039 C 106.99951 589.17539 105.86045 589.09072 104.12549 589.12061 z M 123.57861 616.49707 C 121.30459 616.50996 119.1624 616.79941 117.3999 617.39941 C 115.0999 618.09941 112.29961 619.4002 111.09961 620.2002 L 108.89941 621.7998 L 111.7998 622.80029 C 113.3998 623.30029 116.40039 625.2 118.40039 627 C 128.90038 636.29999 131.30009 651.5007 124.1001 663.20068 C 122.5001 665.70068 121.40029 668.09941 121.80029 668.39941 C 122.80029 669.39941 127.50059 669 132.60059 667.5 C 139.00058 665.6 143.89991 661.50048 147.3999 655.00049 C 154.2999 642.3005 148.00038 624.10058 134.90039 618.60059 C 131.52539 617.22559 127.36865 616.47559 123.57861 616.49707 z M 557.2998 688.39746 C 555.72289 688.4275 554.74424 688.55654 554.50049 688.80029 C 554.20049 689.10029 554.1002 717.49994 554.2002 751.8999 L 554.50049 814.5 L 554.69971 755.69971 L 555 697.00049 L 557.79932 697.00049 C 571.1993 697.00049 607.80052 701.09961 643.00049 706.59961 C 646.20049 707.09961 646.6001 706.90058 647.6001 704.10059 C 648.5001 701.80059 648.5001 700.79971 647.6001 700.19971 C 643.70323 697.02784 572.54329 688.10709 557.2998 688.39746 z M 522.49951 688.40039 C 520.89951 688.40039 515.9 688.50068 511.5 688.70068 C 498.40001 689.10068 479.2995 690.99961 465.49951 693.09961 C 452.29952 695.09961 432.39941 699.29971 431.39941 700.19971 C 430.99941 700.59971 432.49961 705.10029 433.59961 706.80029 C 433.69961 707.00029 438.50069 706.19961 444.20068 705.09961 C 449.80068 703.89961 460.79952 702.09951 468.49951 700.99951 C 484.3995 698.69951 522.60068 696.20039 523.70068 697.40039 C 524.20068 697.80039 524.50049 723.69954 524.50049 754.99951 C 524.50049 786.29948 524.80029 812.2001 525.30029 812.6001 C 525.70029 813.0001 525.8998 785.29938 525.7998 750.89941 L 525.49951 688.5 L 522.49951 688.40039 z M 679.8999 707.10059 L 678.30029 710.79932 C 662.80031 748.79928 652.30067 768.19953 634.70068 790.99951 C 630.50069 796.39951 628.60049 799.60029 629.50049 799.80029 C 631.30049 800.20029 646.99932 794.09961 649.29932 792.09961 C 654.89931 787.29961 673.2005 752.89949 682.00049 730.99951 C 684.90049 723.59952 687.40059 717.29961 687.60059 717.09961 C 688.00059 716.69961 707.40041 723.09932 722.90039 728.79932 C 735.10038 733.29931 737.59981 733.5997 738.7998 730.19971 C 739.3998 728.29971 724.59968 722.20038 695.69971 712.40039 L 679.8999 707.10059 z M 401.05371 707.85205 C 399.97046 707.74072 393.71191 709.56299 386.39941 712.00049 C 358.19944 721.50048 341.60068 728.29971 342.20068 730.19971 C 343.40068 733.5997 345.90011 733.29931 358.1001 728.79932 C 373.50008 723.09932 392.9999 716.69961 393.3999 717.09961 C 393.4999 717.29961 396.00039 723.59952 398.90039 730.99951 C 405.10038 746.5995 418.2004 772.8007 425.90039 784.70068 L 431.10059 792.89941 L 439.1001 796.00049 C 443.50009 797.70049 448.50029 799.40068 450.30029 799.70068 L 453.3999 800.2998 L 450.60059 796.8999 C 432.7006 774.89992 419.0995 751.39997 406.99951 721.5 C 404.19951 714.30001 401.5002 708.20039 401.2002 707.90039 C 401.1752 707.87539 401.12593 707.85947 401.05371 707.85205 z M 287.10059 711 C 286.80059 711 284.10019 713.39981 281.2002 716.2998 C 278.3002 719.1998 276 722.19961 276 723.09961 C 276 723.89961 280.30059 730.29981 285.60059 737.2998 C 296.20058 751.49979 319.69992 776.2003 333.3999 787.80029 C 343.79989 796.50028 356.5002 805.99951 357.7002 805.99951 C 358.20019 805.99951 361.20039 803.40058 364.40039 800.10059 L 370.19971 794.2998 L 362.79932 789 C 336.79934 770.10002 311.59969 744.70017 293.69971 719.2002 C 290.49971 714.7002 287.50059 711 287.10059 711 z M 397.29932 811.00049 C 396.79932 811.00049 364.70064 842.79936 325.70068 881.79932 C 286.80072 920.69928 255 953.00049 255 953.50049 C 255.1 959.20048 257.20036 957.20013 322.80029 891.7002 L 388.59961 825.89941 L 400.00049 831.3999 C 422.40047 841.99989 447.0007 850.69991 468.20068 855.3999 C 479.50067 857.8999 505.3 862.00049 510 862.00049 C 511.8 862.00049 514.60049 859.90048 520.00049 854.50049 C 524.10048 850.40049 527.1999 846.80059 526.8999 846.60059 C 526.5999 846.30059 521.00038 845.59951 514.40039 844.99951 C 476.40043 841.49952 436.89928 830.50037 404.79932 814.40039 C 401.09932 812.50039 397.69932 811.00049 397.29932 811.00049 z M 731.9502 908.29541 C 729.45645 908.25635 727.22549 908.3501 725.50049 908.6001 C 708.40051 911.30009 692.70019 921.19943 683.2002 935.39941 C 675.5002 946.8994 673.5 953.90002 673.5 969 C 673.5 988.89998 677.80011 999.3005 692.6001 1015.0005 C 707.10008 1030.4005 719.29953 1036.4001 738.49951 1037.6001 C 756.69949 1038.8001 771.99952 1033 784.99951 1020 C 800.9995 1004 806.69999 982.80056 801 960.60059 C 797.9 948.4006 793.80048 941.80057 782.50049 930.60059 C 770.5005 918.7006 764.89989 914.90009 754.8999 911.6001 C 749.27491 909.7251 739.43144 908.4126 731.9502 908.29541 z M 734.07861 909.99756 C 739.08149 909.98679 744.15645 910.60664 749.2002 911.90039 C 766.00018 916.20039 778.90049 926.19972 785.50049 940.19971 C 799.90047 970.49968 789.00036 1005.2007 760.40039 1020.2007 C 737.90041 1032.0007 708.80037 1028.0001 691.40039 1010.6001 C 674.20041 993.30011 670.0006 964.00037 681.60059 941.90039 C 692.08183 921.91291 712.39948 910.04421 734.07861 909.99756 z M 654 910.00049 L 621.30029 910.1001 C 598.70032 910.1001 587.09951 910.49941 583.99951 911.39941 C 563.99953 916.69941 553.60001 940.29973 562.5 959.69971 C 565.9 967.1997 579.49952 981.09981 586.99951 984.7998 C 592.39951 987.4998 592.69934 987.4998 616.29932 987.7998 C 643.29929 988.1998 642.90058 988.09962 641.10059 996.09961 C 639.90059 1001.1996 636.80058 1004.7005 632.10059 1006.0005 C 630.00059 1006.6005 613.99979 1006.9995 594.7998 1006.9995 L 561 1006.9995 L 561 1017 L 561 1027.0005 L 565.5 1027.0005 L 570 1027.0005 L 570 1031.5005 L 570 1036.0005 L 608.79932 1036.0005 L 647.69971 1036.0005 L 653.79932 1033.0005 C 660.99931 1029.4005 666.19942 1023.8006 669.89941 1016.1006 C 672.09941 1011.4006 672.49951 1009.1005 672.49951 1001.5005 C 672.49951 989.1005 669.90067 983.5995 658.70068 972.49951 C 645.3007 959.19953 641.40026 958.00049 610.80029 958.00049 L 591 958.00049 L 591 953.39941 C 591 950.89942 591.80068 947.49941 592.70068 945.89941 C 596.00068 940.29942 597.79994 940.00049 631.8999 940.00049 L 663 940.00049 L 663 929.50049 L 663 919.00049 L 658.5 919.00049 L 654 919.00049 L 654 914.50049 L 654 910.00049 z M 808.00049 910.00049 L 808.00049 951.20068 C 808.00049 973.90066 808.30068 1000.3007 808.70068 1009.7007 L 809.2998 1027.0005 L 813.09961 1027.0005 C 816.79961 1027.0005 816.89961 1027.1005 817.59961 1031.5005 L 818.2002 1036.0005 L 829.1001 1036.0005 L 840 1036.0005 L 840 1012.0005 L 840 988.00049 L 880.00049 988.00049 L 919.99951 988.00049 L 919.99951 977.50049 L 919.99951 967.00049 L 915.49951 967.00049 L 910.99951 967.00049 L 910.99951 962.50049 L 910.99951 958.00049 L 875.50049 958.00049 L 840 958.00049 L 840 949.00049 L 840 940.00049 L 880.5 940.00049 L 921 940.00049 L 921 935.50049 C 921 931.40049 921.19942 931.00049 923.39941 931.00049 C 925.59941 931.00049 925.9002 931.5002 926.2002 935.2002 L 926.50049 939.49951 L 942.7998 939.7998 L 958.99951 940.00049 L 958.99951 983.50049 L 958.99951 1026.8994 L 963.30029 1027.1997 C 967.50029 1027.4997 967.50029 1027.4997 967.80029 1031.6997 L 968.10059 1036.0005 L 979.1001 1036.0005 L 990 1036.0005 L 990 988.00049 L 990 940.00049 L 1011 940.00049 L 1032 940.00049 L 1032 929.50049 L 1032 919.00049 L 1027.5 919.00049 L 1023 919.00049 L 1023 914.50049 L 1023 910.00049 L 970.00049 910.00049 L 916.99951 910.00049 L 916.99951 914.50049 C 916.99951 918.60048 916.80049 919.00049 914.50049 919.00049 C 912.20049 919.00049 912 918.60048 912 914.50049 L 912 910.00049 L 859.99951 910.00049 L 808.00049 910.00049 z M 619.80029 912 L 652.00049 912 L 652.00049 919.8999 L 652.00049 927.89941 L 621.30029 928.19971 C 587.00033 928.49971 586.19961 928.69981 582.09961 935.2998 C 577.49961 942.7998 580.19981 954.9003 587.2998 958.80029 C 589.9998 960.20029 594.40002 960.60049 615 961.00049 C 635.09998 961.50049 640.19932 961.90029 643.29932 963.30029 C 650.19931 966.30029 654.79971 970.79932 658.19971 977.79932 C 661.1997 983.79931 661.5 985.30001 661.5 993 C 661.4 1000.2 661.00068 1002.3007 658.70068 1006.7007 C 654.80069 1014.2007 650.60019 1018.5007 644.2002 1021.7007 L 638.50049 1024.5 L 600.7998 1024.8003 L 562.99951 1025.1006 L 562.99951 1017.0996 L 562.99951 1009.1001 L 598.40039 1008.7998 C 632.40036 1008.4998 634.00059 1008.4004 636.60059 1006.4004 C 641.90058 1002.5004 643.5 999.39999 643.5 993 C 643.5 986.60001 641.90058 983.49961 636.60059 979.59961 C 634.10059 977.59961 632.10066 977.49951 609.20068 976.99951 C 584.60071 976.49951 584.49931 976.50068 578.79932 973.70068 C 567.39933 968.10069 561.60059 957.9995 561.60059 943.99951 C 561.70059 932.89952 565.99991 924.40038 574.8999 917.90039 C 582.29989 912.4004 584.70033 912.1 619.80029 912 z M 810 912 L 859.99951 912 L 910.00049 912 L 910.00049 919.99951 L 910.00049 928.00049 L 869.50049 928.00049 L 829.00049 928.00049 L 829.00049 944.50049 L 829.00049 961.00049 L 868.5 961.00049 L 907.99951 961.00049 L 907.99951 969 L 907.99951 976.99951 L 868.5 976.99951 L 829.00049 976.99951 L 829.00049 1000.9995 L 829.00049 1024.9995 L 820.19971 1024.9995 L 811.29932 1024.9995 L 810.7002 1005.3003 C 810.3002 994.5003 810 969.09978 810 948.7998 L 810 912 z M 919.00049 912 L 970.00049 912 L 1021.0005 912 L 1021.0005 919.99951 L 1021.0005 928.00049 L 1000.0005 928.00049 L 979.00049 928.00049 L 979.00049 976.5 L 979.00049 1024.9995 L 970.00049 1024.9995 L 961.00049 1024.9995 L 961.00049 976.5 L 961.00049 928.00049 L 940.00049 928.00049 L 919.00049 928.00049 L 919.00049 919.99951 L 919.00049 912 z M 733.0752 927.12451 C 728.4502 927.14951 723.90009 927.64961 721.1001 928.59961 C 713.10011 931.39961 704.40019 938.60011 699.7002 946.1001 C 696.4002 951.60009 694.00049 960.79942 694.00049 968.39941 C 694.00049 990.99939 709.40041 1008.6003 730.40039 1009.8003 C 740.60038 1010.4003 747.5003 1008.8006 754.80029 1004.1006 C 778.60027 988.7006 779.09968 949.70057 755.69971 933.60059 C 752.79971 931.60059 748.2 929.3 745.5 928.5 C 742.4 927.55 737.70019 927.09951 733.0752 927.12451 z M 741.9082 938.60156 C 746.21997 938.56689 750.70606 939.26319 755.2998 940.70068 C 762.2998 942.90068 766.5001 947.60059 769.1001 956.10059 C 775.10009 975.80057 766.30067 996.50011 748.70068 1004.6001 C 743.40069 1007.1001 741.29999 1007.5005 733.5 1007.5005 C 717.50002 1007.5005 710.00039 1002.1005 706.40039 988.00049 C 702.90039 974.1005 706.79972 958.99931 716.69971 949.29932 C 723.78095 942.28682 732.42232 938.67783 741.9082 938.60156 z M 155.39941 954.09961 C 155.19941 953.89961 151.2997 957.50059 146.69971 962.10059 C 140.39971 968.40058 137.40009 972.40001 134.6001 978 C 123.00011 1001.8 127.19992 1027.1995 145.8999 1045.9995 C 164.49988 1064.7995 190.09944 1068.9993 213.89941 1057.2993 C 224.0994 1052.2993 234.19981 1042.1996 239.2998 1032.0996 C 243.9998 1022.7996 244.09931 1021.0993 239.79932 1024.2993 C 234.49932 1028.2993 224.50029 1032.9005 217.80029 1034.5005 C 205.60031 1037.4005 195.19979 1036.1001 180.7998 1030.1001 C 172.29981 1026.5001 165.99999 1020.7003 159 1009.8003 C 150.20001 996.30031 147.90069 977.3995 153.20068 961.99951 C 154.70068 957.89952 155.59941 954.29961 155.39941 954.09961 z M 206.68652 954.12305 C 203.64915 954.1321 200.64326 954.44385 198.49951 955.1001 C 193.69952 956.4001 187.00039 962.89942 184.40039 968.39941 C 180.70039 976.29941 180.99962 976.99951 187.59961 976.99951 C 195.4996 976.99951 200.40069 978.69942 205.70068 983.39941 C 210.50068 987.59941 214.99951 995.7001 214.99951 1000.1001 C 214.99951 1001.5001 215.3001 1002.8993 215.6001 1003.2993 C 217.5001 1005.0993 227.2001 996.49999 230.6001 990 C 233.30009 984.90001 233.0998 973.80048 230.2998 968.50049 C 227.49981 963.30049 221.4998 957.5 216.7998 955.5 C 214.54981 954.6 210.59172 954.1114 206.68652 954.12305 z " />
</svg>
