<?xml version="1.0" standalone="no"?>
<!DOCTYPE svg PUBLIC "-//W3C//DTD SVG 20010904//EN"
 "http://www.w3.org/TR/2001/REC-SVG-20010904/DTD/svg10.dtd">
<svg version="1.0" xmlns="http://www.w3.org/2000/svg"
 width="1080.000000pt" height="1080.000000pt" viewBox="0 0 1080.000000 1080.000000"
 preserveAspectRatio="xMidYMid meet">

<g transform="translate(0.000000,1080.000000) scale(0.100000,-0.100000)"
fill="#000000" stroke="none">
<path d="M8785 10624 c-140 -35 -283 -134 -359 -247 -33 -51 -81 -157 -71
-157 3 0 33 19 68 43 144 99 327 120 507 58 52 -18 109 -41 127 -52 37 -23
132 -146 167 -216 76 -152 80 -321 11 -485 -13 -31 10 -19 72 37 79 71 130
149 166 254 64 187 26 397 -103 560 -131 165 -387 255 -585 205z"/>
<path d="M6720 10295 c-14 -7 -391 -389 -838 -848 l-812 -835 -58 -6 c-1041
-121 -1986 -784 -2471 -1735 -164 -321 -273 -659 -317 -981 -8 -63 -17 -125
-19 -136 -3 -12 -187 -206 -409 -431 l-405 -410 67 -27 67 -26 426 429 426
429 7 74 c4 40 20 138 36 218 142 711 551 1369 1127 1813 435 334 929 536
1495 612 46 6 48 8 735 713 378 389 728 748 778 799 72 73 98 93 128 98 55 10
101 -2 138 -36 l32 -30 35 33 c37 36 71 100 72 135 0 44 -33 105 -73 134 -32
23 -50 29 -91 29 -28 -1 -62 -7 -76 -15z"/>
<path d="M8604 10021 c-47 -29 -100 -97 -114 -147 -26 -91 3 -219 63 -274 92
-88 260 -85 351 6 32 32 76 118 76 149 0 18 -7 20 -78 20 -89 1 -139 21 -190
79 -31 35 -62 117 -62 163 0 28 -6 28 -46 4z"/>
<path d="M560 8985 l0 -665 50 0 50 0 0 -50 0 -51 128 3 127 3 3 273 2 272
179 0 c131 0 181 -3 188 -12 5 -7 49 -109 98 -225 85 -207 88 -213 116 -213
25 0 31 -7 50 -50 l21 -50 135 0 c104 0 134 3 130 13 -2 6 -55 132 -116 280
-61 147 -111 272 -111 276 0 5 15 19 34 31 57 34 133 125 157 188 19 45 23 77
23 152 0 147 -20 188 -158 326 -168 168 -130 158 -668 162 l-438 3 0 -666z
m942 602 c84 -41 152 -121 179 -209 55 -179 -18 -370 -171 -448 -23 -12 -39
-26 -37 -33 8 -18 207 -498 217 -524 10 -23 9 -23 -98 -23 l-107 0 -29 73
c-17 39 -67 160 -112 267 l-83 195 -235 3 -236 2 0 -270 0 -270 -105 0 -105 0
0 635 0 636 433 -3 432 -3 57 -28z"/>
<path d="M790 9254 l0 -185 293 3 294 3 40 27 c94 62 105 217 21 295 -43 40
-69 43 -364 43 l-284 0 0 -186z m678 9 c4 -55 -19 -102 -65 -133 -36 -25 -41
-25 -260 -28 l-223 -3 0 105 0 106 273 -2 272 -3 3 -42z"/>
<path d="M1872 8988 l3 -663 48 -3 47 -3 0 -50 0 -49 590 0 590 0 0 115 0 115
-50 0 -50 0 0 50 0 50 -407 2 -408 3 0 105 0 105 453 3 452 2 0 115 0 114 -52
3 -53 3 -3 47 -3 48 -397 2 -397 3 -3 103 -3 102 461 0 460 0 0 120 0 120 -50
0 -50 0 0 50 0 50 -590 0 -590 0 2 -662z m1146 545 l-3 -88 -458 -3 -457 -2 2
-183 3 -182 453 -3 453 -2 -3 -88 -3 -87 -452 -3 -453 -2 0 -180 0 -180 458
-2 457 -3 3 -87 3 -88 -561 0 -560 0 0 635 0 635 560 0 561 0 -3 -87z"/>
<path d="M7551 8916 l-653 -653 -132 62 c-285 137 -572 224 -902 275 -196 30
-186 32 -271 -52 -40 -40 -73 -75 -73 -79 0 -4 35 -10 78 -13 401 -35 756
-128 1095 -289 l128 -61 711 711 c607 607 709 713 703 732 -3 11 -12 21 -18
21 -7 0 -306 -294 -666 -654z"/>
<path d="M9275 8414 c-16 -8 -58 -43 -92 -77 l-63 -61 43 -13 c61 -18 108 -70
114 -127 3 -24 2 -57 -1 -73 -5 -19 -144 -166 -424 -448 -229 -231 -497 -501
-595 -601 l-178 -180 54 -110 c151 -302 257 -692 288 -1050 7 -77 14 -141 16
-143 2 -3 37 28 78 69 86 85 84 76 59 252 -45 331 -168 725 -316 1013 l-26 49
622 629 c357 361 627 642 635 660 17 42 9 121 -16 155 -24 34 -98 72 -138 72
-16 0 -43 -7 -60 -16z"/>
<path d="M5545 7515 l0 -630 95 3 c222 7 489 37 703 78 125 25 137 29 137 49
0 12 -6 29 -12 38 -12 15 -22 15 -143 -7 -180 -33 -606 -76 -757 -76 -17 0
-18 35 -21 588 l-2 587 0 -630z"/>
<path d="M5251 8125 c-2 -5 -5 -265 -5 -577 -1 -311 -4 -569 -7 -573 -17 -17
-494 29 -736 71 -78 13 -149 24 -157 24 -11 0 -36 -46 -36 -66 0 -32 914 -144
942 -116 5 5 7 287 5 628 -1 340 -4 615 -6 609z"/>
<path d="M7145 7999 c-48 -48 -57 -62 -45 -69 39 -22 212 -157 302 -235 120
-106 290 -290 393 -428 42 -56 87 -115 100 -132 l23 -30 56 55 c31 30 56 60
56 66 0 14 -89 140 -169 239 -74 93 -244 268 -357 369 -95 85 -276 226 -291
226 -5 0 -35 -27 -68 -61z"/>
<path d="M4395 7972 c-82 -35 -94 -43 -128 -92 -87 -125 -227 -397 -302 -590
-20 -52 -40 -98 -44 -102 -6 -7 -282 83 -424 138 -50 19 -82 13 -82 -17 0 -25
569 -239 586 -221 4 4 26 57 50 117 100 254 254 528 406 723 75 96 71 99 -62
44z"/>
<path d="M6293 7969 c181 -223 312 -450 437 -756 42 -103 58 -133 73 -133 45
0 544 184 572 211 6 6 3 15 -8 26 -13 14 -22 15 -49 5 -18 -6 -116 -40 -218
-75 -263 -91 -231 -92 -270 11 -77 203 -189 428 -299 600 -45 70 -48 73 -124
102 -43 17 -93 34 -110 37 l-32 6 28 -34z"/>
<path d="M9715 7074 c-61 -9 -151 -37 -200 -63 l-50 -26 110 -6 c122 -7 181
-23 265 -75 66 -41 93 -65 141 -124 103 -127 142 -305 104 -469 -36 -151 -161
-311 -298 -380 -37 -19 -67 -36 -67 -39 0 -11 163 10 223 28 85 27 200 103
265 176 103 117 153 250 153 403 -1 257 -154 470 -392 546 -75 24 -195 37
-254 29z"/>
<path d="M3795 6738 c-76 -331 -155 -901 -155 -1125 l0 -53 -502 -3 -503 -2
546 -3 c619 -2 559 -12 559 87 0 201 69 698 140 1013 17 72 30 132 30 134 0 4
-71 24 -87 24 -6 0 -19 -33 -28 -72z"/>
<path d="M6912 6799 c-31 -9 -33 -13 -27 -37 93 -362 147 -714 163 -1052 l7
-155 540 0 540 0 -491 2 -491 3 -7 133 c-20 368 -61 665 -141 1005 -29 121
-27 120 -93 101z"/>
<path d="M9432 6649 c-34 -17 -75 -47 -91 -66 -57 -69 -65 -192 -19 -276 63
-113 221 -161 343 -103 l50 24 -40 17 c-100 43 -154 116 -162 219 -6 75 8 126
49 179 l29 37 -49 0 c-34 0 -67 -9 -110 -31z"/>
<path d="M5244 6078 l1 -503 -605 -5 -605 -5 610 0 610 0 3 508 c1 292 -2 507
-7 507 -5 0 -8 -213 -7 -502z"/>
<path d="M5542 6068 l-2 -518 608 2 607 3 -602 2 -603 3 -3 513 -2 512 -3
-517z"/>
<path d="M8837 5511 l-425 -426 -7 -65 c-11 -104 -54 -315 -90 -445 -218 -779
-737 -1440 -1443 -1839 -317 -179 -664 -298 -1038 -356 l-129 -20 -787 -787
c-605 -606 -795 -791 -823 -801 -46 -15 -101 -3 -145 34 -30 26 -31 26 -52 8
-41 -36 -78 -106 -78 -146 0 -115 112 -197 213 -155 25 11 292 273 862 846
822 826 827 830 873 836 414 55 796 176 1142 362 119 64 349 217 471 314 132
104 411 383 518 517 351 444 594 1007 667 1549 l17 128 405 407 c224 224 404
409 402 411 -3 3 -33 16 -67 29 l-61 25 -425 -426z"/>
<path d="M2292 5197 c-83 -84 -83 -85 -57 -262 50 -335 153 -671 290 -946 l53
-106 -624 -624 c-344 -343 -632 -636 -640 -651 -8 -15 -14 -49 -14 -75 0 -90
63 -153 153 -153 62 0 88 15 165 93 l64 64 -44 6 c-33 4 -51 15 -80 46 -34 36
-38 46 -38 93 0 33 6 63 16 78 9 14 282 291 606 615 l589 591 -25 45 c-152
272 -286 737 -318 1108 -6 75 -14 139 -18 143 -3 4 -38 -25 -78 -65z"/>
<path d="M3161 5243 l496 -3 7 -138 c8 -162 21 -314 42 -472 36 -269 116 -640
138 -640 12 0 77 20 84 25 2 2 -10 56 -27 121 -78 312 -133 709 -144 1039 l-2
70 -545 0 -545 0 496 -2z"/>
<path d="M4633 5243 l597 -3 0 -505 c0 -330 3 -505 10 -505 7 0 10 177 10 510
l0 510 -607 -2 -608 -3 598 -2z"/>
<path d="M5542 4733 l3 -518 2 512 3 513 608 3 607 2 -612 3 -613 2 2 -517z"/>
<path d="M7066 5228 c-2 -13 -9 -97 -15 -187 -19 -278 -69 -612 -131 -885 -17
-72 -30 -133 -30 -137 0 -7 89 -34 94 -28 2 2 18 67 35 144 62 287 109 618
132 932 l12 173 496 3 496 2 -542 3 -543 2 -4 -22z"/>
<path d="M930 4899 c-226 -33 -420 -214 -479 -446 -26 -101 -26 -176 -1 -272
31 -120 74 -196 159 -281 184 -183 437 -228 668 -121 34 17 63 31 63 33 0 2
-39 3 -88 3 -208 1 -397 118 -492 306 -32 62 -70 203 -70 256 0 51 37 180 72
253 42 86 150 193 241 239 37 19 67 36 67 37 0 6 -81 2 -140 -7z"/>
<path d="M1174 4626 c-23 -7 -51 -20 -63 -28 l-22 -16 29 -10 c16 -5 46 -24
66 -42 105 -93 129 -245 57 -362 -16 -25 -27 -49 -23 -52 10 -10 57 -6 108 9
64 19 113 60 148 125 69 127 6 309 -125 364 -54 22 -128 28 -175 12z"/>
<path d="M5115 3913 c-131 -4 -322 -23 -460 -44 -132 -20 -331 -62 -341 -71
-4 -4 11 -49 22 -66 1 -2 49 6 106 17 56 12 166 30 243 41 159 23 541 48 552
36 5 -4 8 -263 8 -576 0 -313 3 -572 8 -576 4 -4 6 273 5 617 l-3 624 -30 1
c-16 0 -66 -1 -110 -3z"/>
<path d="M5545 3912 c-3 -3 -4 -287 -3 -631 l3 -626 2 588 3 587 28 0 c134 0
500 -41 852 -96 32 -5 36 -3 46 25 9 23 9 33 0 39 -43 35 -905 140 -931 114z"/>
<path d="M3864 3680 c-282 -95 -448 -163 -442 -182 12 -34 37 -31 159 14 154
57 349 121 353 117 1 -2 26 -65 55 -139 62 -156 193 -418 270 -537 l52 -82 80
-31 c44 -17 94 -34 112 -37 l31 -6 -28 34 c-179 220 -315 455 -436 754 -28 72
-55 133 -58 136 -4 4 -70 -15 -148 -41z"/>
<path d="M6783 3692 c-155 -380 -260 -574 -436 -802 -42 -54 -61 -86 -52 -88
18 -4 175 57 198 77 56 48 239 392 327 611 29 74 54 137 56 139 4 4 198 -60
353 -117 122 -45 147 -48 159 -14 6 19 -142 80 -431 178 l-158 53 -16 -37z"/>
<path d="M2812 3637 c-29 -29 -52 -59 -52 -68 0 -8 43 -72 96 -142 106 -142
341 -389 478 -505 104 -87 231 -182 243 -182 5 0 35 26 67 59 l58 58 -74 53
c-260 189 -512 443 -691 698 -32 45 -62 82 -66 82 -3 0 -30 -24 -59 -53z"/>
<path d="M3257 1982 c-389 -389 -707 -712 -707 -717 1 -57 22 -37 678 618
l658 658 114 -55 c224 -106 470 -193 682 -240 113 -25 371 -66 418 -66 18 0
46 21 100 75 41 41 72 77 69 79 -3 3 -59 10 -125 16 -380 35 -775 145 -1096
306 -37 19 -71 34 -75 34 -5 0 -326 -318 -716 -708z"/>
<path d="M7255 1714 c-171 -27 -328 -126 -423 -268 -77 -115 -97 -185 -97
-336 0 -199 43 -303 191 -460 145 -154 267 -214 459 -226 182 -12 335 46 465
176 160 160 217 372 160 594 -31 122 -72 188 -185 300 -120 119 -176 157 -276
190 -75 25 -225 40 -294 30z m237 -33 c168 -43 297 -143 363 -283 144 -303 35
-650 -251 -800 -225 -118 -516 -78 -690 96 -172 173 -214 466 -98 687 129 246
407 369 676 300z"/>
<path d="M7211 1514 c-80 -28 -167 -100 -214 -175 -33 -55 -57 -147 -57 -223
0 -226 154 -402 364 -414 102 -6 171 10 244 57 238 154 243 544 9 705 -29 20
-75 43 -102 51 -62 19 -188 18 -244 -1z m342 -121 c70 -22 112 -69 138 -154
60 -197 -28 -404 -204 -485 -53 -25 -74 -29 -152 -29 -160 0 -235 54 -271 195
-35 139 4 290 103 387 103 102 239 132 386 86z"/>
<path d="M5840 1686 c-200 -53 -304 -289 -215 -483 34 -75 170 -214 245 -251
54 -27 57 -27 293 -30 270 -4 266 -3 248 -83 -12 -51 -43 -86 -90 -99 -21 -6
-181 -10 -373 -10 l-338 0 0 -100 0 -100 45 0 45 0 0 -45 0 -45 388 0 389 0
61 30 c72 36 124 92 161 169 22 47 26 70 26 146 0 124 -26 179 -138 290 -134
133 -173 145 -479 145 l-198 0 0 46 c0 25 8 59 17 75 33 56 51 59 392 59 l311
0 0 105 0 105 -45 0 -45 0 0 45 0 45 -327 -1 c-226 0 -342 -4 -373 -13z m680
-85 l0 -80 -307 -3 c-343 -3 -351 -5 -392 -71 -46 -75 -19 -196 52 -235 27
-14 71 -18 277 -22 201 -5 252 -9 283 -23 69 -30 115 -75 149 -145 30 -60 33
-75 33 -152 -1 -72 -5 -93 -28 -137 -39 -75 -81 -118 -145 -150 l-57 -28 -377
-3 -378 -3 0 80 0 80 354 3 c340 3 356 4 382 24 53 39 69 70 69 134 0 64 -16
95 -69 134 -25 20 -45 21 -274 26 -246 5 -247 5 -304 33 -114 56 -172 157
-172 297 1 111 44 196 133 261 74 55 98 58 449 59 l322 0 0 -79z"/>
<path d="M8080 1288 c0 -227 3 -491 7 -585 l6 -173 38 0 c37 0 38 -1 45 -45
l6 -45 109 0 109 0 0 240 0 240 400 0 400 0 0 105 0 105 -45 0 -45 0 0 45 0
45 -355 0 -355 0 0 90 0 90 405 0 405 0 0 45 c0 41 2 45 24 45 22 0 25 -5 28
-42 l3 -43 163 -3 162 -2 0 -435 0 -434 43 -3 c42 -3 42 -3 45 -45 l3 -43 110
0 109 0 0 480 0 480 210 0 210 0 0 105 0 105 -45 0 -45 0 0 45 0 45 -530 0
-530 0 0 -45 c0 -41 -2 -45 -25 -45 -23 0 -25 4 -25 45 l0 45 -520 0 -520 0 0
-412z m1020 312 l0 -80 -405 0 -405 0 0 -165 0 -165 395 0 395 0 0 -80 0 -80
-395 0 -395 0 0 -240 0 -240 -88 0 -89 0 -6 197 c-4 108 -7 362 -7 565 l0 368
500 0 500 0 0 -80z m1110 0 l0 -80 -210 0 -210 0 0 -485 0 -485 -90 0 -90 0 0
485 0 485 -210 0 -210 0 0 80 0 80 510 0 510 0 0 -80z"/>
<path d="M1467 1179 c-63 -63 -93 -103 -121 -159 -116 -238 -74 -492 113 -680
186 -188 442 -230 680 -113 102 50 203 151 254 252 47 93 48 110 5 78 -53 -40
-153 -86 -220 -102 -122 -29 -226 -16 -370 44 -85 36 -148 94 -218 203 -88
135 -111 324 -58 478 15 41 24 77 22 79 -2 2 -41 -34 -87 -80z"/>
<path d="M1985 1249 c-48 -13 -115 -78 -141 -133 -37 -79 -34 -86 32 -86 79 0
128 -17 181 -64 48 -42 93 -123 93 -167 0 -14 3 -28 6 -32 19 -18 116 68 150
133 27 51 25 162 -3 215 -28 52 -88 110 -135 130 -40 16 -134 19 -183 4z"/>
</g>
</svg>
